<?xml version="1.0" encoding="utf-8"?>
<!-- Generator: Adobe Illustrator 27.5.0, SVG Export Plug-In . SVG Version: 6.00 Build 0)  -->
<svg version="1.1" xmlns="http://www.w3.org/2000/svg" xmlns:xlink="http://www.w3.org/1999/xlink" x="0px" y="0px"
	 viewBox="0 0 2200 2200" style="enable-background:new 0 0 2200 2200;" xml:space="preserve">
<g id="background">
	<rect x="0" y="0" style="fill:#FFFFFF;" width="2200" height="2200"/>
</g>
<g id="Objects">
	<g>
		<path d="M1037.475,1089.122c2.483,3.419,6.792,4.984,10.893,3.952c4.097-1.032,7.154-4.452,7.721-8.639
			c11.52-85.056,50.881-166.048,110.834-228.059c33.159-34.304,72.828-63.246,111.19-91.235
			c14.008-10.219,28.492-20.787,42.521-31.508c46.415-35.484,103.54-84.655,133.535-150.473c2.368-5.197,0.075-11.329-5.121-13.697
			c-5.194-2.366-11.329-0.075-13.697,5.121c-14.757,32.381-42.56,77.854-127.275,142.619c-13.845,10.58-28.234,21.079-42.15,31.232
			c-39.071,28.506-79.473,57.982-113.87,93.568c-56.884,58.835-96.125,133.938-112.116,213.777
			c-32.844-52.73-50.926-112.414-52.543-174.074c-1.505-57.355,11.466-114.042,35.585-155.527
			c55.637-95.699,129.322-145.31,200.582-193.288c88.748-59.752,172.696-116.265,202.057-253.224
			c49.805,13.632,100.854,46.88,144.83,94.54c46.54,50.437,79.307,110.397,92.264,168.835
			c11.669,52.637,6.683,111.893-14.423,171.361c-19.074,53.748-50.544,105.083-88.612,144.551
			c-50.313,52.166-117.24,86.694-181.965,120.085c-14.785,7.627-30.073,15.515-44.932,23.492
			c-163.1,87.568-260.993,214.673-299.274,388.577c-1.228,5.577,2.299,11.094,7.876,12.321c0.749,0.164,1.496,0.244,2.232,0.243
			c4.748,0,9.025-3.291,10.089-8.119c36.906-167.66,131.393-290.259,288.86-374.803c14.708-7.896,29.919-15.744,44.63-23.333
			c66.216-34.161,134.687-69.484,187.368-124.107c73.884-76.601,136.037-209.814,108.34-334.745
			c-13.736-61.951-48.275-125.302-97.255-178.383c-49.836-54.01-108.724-90.674-165.813-103.239
			c-2.732-0.602-5.592-0.071-7.926,1.473c-2.333,1.543-3.942,3.966-4.459,6.715c-11.688,62.196-35.007,110.958-73.382,153.455
			c-34.491,38.196-77.024,66.833-122.055,97.15c-35.815,24.114-72.851,49.049-108.309,80.468
			c-40.359,35.762-72.612,74.876-98.603,119.58c-25.992,44.708-39.981,105.381-38.379,166.463
			C968.67,956.522,993.136,1028.059,1037.475,1089.122z"/>
		<path d="M2009.355,1330.607c-3.225-73.418-24.556-139.425-60.064-185.861c-1.699-2.223-4.227-3.662-7.005-3.989
			c-2.78-0.322-5.572,0.487-7.74,2.254c-49.062,39.975-98.338,62.182-155.077,69.887c-50.996,6.926-101.969,1.358-155.933-4.533
			c-42.921-4.688-87.303-9.534-134.666-8.41c-53.909,1.28-103.788,10.353-152.488,27.735
			c-48.705,17.384-98.541,54.711-136.73,102.41c-46.437,58.002-73.903,128.44-79.43,203.701c-0.31,4.213,1.976,8.191,5.772,10.047
			c3.793,1.855,8.338,1.216,11.473-1.618c63.683-57.548,146.014-94.026,231.827-102.718c47.469-4.813,96.452-1.327,143.821,2.043
			c17.294,1.23,35.177,2.503,52.81,3.364c58.354,2.839,133.724,2.133,199.11-28.796c5.162-2.441,7.367-8.605,4.925-13.769
			c-2.441-5.162-8.606-7.368-13.768-4.925c-61.237,28.966-133.313,29.56-189.261,26.833c-17.401-0.849-35.167-2.113-52.349-3.336
			c-48.244-3.433-98.13-6.983-147.374-1.989c-81.42,8.245-159.858,40.303-223.591,90.979c8.931-61.477,33.627-118.74,72.177-166.892
			c35.859-44.789,82.345-79.728,127.538-95.858c104.256-37.214,192.563-27.569,277.958-18.244
			c36.301,3.964,71.918,7.854,107.512,7.854c68.694-0.002,137.261-14.493,210.246-70.937
			c29.254,42.551,46.801,100.89,49.646,165.677c3.012,68.562-10.645,135.513-38.452,188.52
			c-25.048,47.743-67.092,89.795-121.587,121.609c-49.253,28.755-106.419,47.669-160.969,53.259
			c-66.979,6.861-135.187-8.317-201.15-23.001c-21.296-4.74-43.316-9.643-65.054-13.756c-52.92-10.018-98.832-13.026-140.361-9.202
			c-51.574,4.75-95.379,20.479-130.197,46.749c-32.912,24.826-59.151,59.659-80.219,106.49
			c-6.914,15.371-12.964,31.334-18.407,47.539c0.439-87.177-7.747-160.429-24.47-218.504
			c-17.669-61.361-44.917-106.27-80.986-133.477c-29.333-22.132-66.205-35.38-109.593-39.376
			c-34.837-3.205-73.332-0.687-117.683,7.707c-18.179,3.441-36.581,7.537-54.378,11.499
			c-54.949,12.23-111.765,24.876-167.426,19.174c-45.314-4.644-92.807-20.358-133.73-44.25
			c-45.229-26.405-80.113-61.285-100.88-100.869c-23.083-44.001-34.417-99.6-31.916-156.557
			c2.33-53.033,16.504-100.832,40.146-135.968c92.488,70.775,176.426,61.605,265.136,51.918
			c71.12-7.766,144.66-15.797,231.351,15.146c37.449,13.366,75.99,42.346,105.742,79.507
			c31.111,38.858,51.353,84.869,59.268,134.294c-52.854-40.977-117.329-66.894-184.201-73.666
			c-41.271-4.186-83.001-1.214-123.357,1.657c-14.338,1.021-29.164,2.075-43.676,2.783c-46.521,2.265-106.438,1.781-157.23-22.246
			c-5.162-2.442-11.326-0.237-13.769,4.925c-2.442,5.162-0.236,11.327,4.926,13.769c54.938,25.987,118.146,26.585,167.08,24.209
			c14.743-0.72,29.686-1.783,44.136-2.812c39.484-2.81,80.313-5.713,119.806-1.711c71.299,7.221,139.704,37.53,192.615,85.344
			c3.136,2.833,7.678,3.471,11.474,1.618c3.795-1.855,6.08-5.834,5.771-10.047c-4.641-63.192-27.704-122.337-66.698-171.042
			c-32.082-40.072-73.974-71.439-114.935-86.059c-40.841-14.578-82.667-22.186-127.867-23.259
			c-39.664-0.946-76.782,3.112-112.68,7.032c-90.811,9.916-169.242,18.481-258.446-54.201c-2.169-1.767-4.962-2.581-7.74-2.253
			c-2.778,0.327-5.306,1.766-7.005,3.988c-29.861,39.051-47.798,94.512-50.506,156.166c-2.66,60.551,9.508,119.885,34.263,167.071
			c49.938,95.185,161.955,146.979,250.815,156.084c58.987,6.047,117.468-6.973,174.027-19.561
			c17.638-3.926,35.877-7.985,53.73-11.365c42.43-8.031,79.046-10.466,111.94-7.433c39.498,3.638,72.818,15.511,99.035,35.291
			c32.414,24.45,57.166,65.729,73.567,122.69c21.185,73.57,28.208,172.957,20.874,295.399c-0.318,5.315,3.452,10.003,8.712,10.832
			c0.544,0.086,1.084,0.127,1.619,0.127c4.64,0,8.808-3.132,10.002-7.756c10.757-41.653,22.738-85.607,40.403-124.877
			c19.604-43.578,43.748-75.786,73.813-98.465c31.702-23.919,71.955-38.273,119.64-42.665c39.583-3.647,83.618-0.727,134.619,8.929
			c21.412,4.053,43.269,8.917,64.406,13.622c67.57,15.042,137.441,30.594,207.752,23.388
			c105.871-10.849,239.31-72.518,298.76-185.833C1998.035,1473.449,2012.524,1402.765,2009.355,1330.607z"/>
	</g>
</g>
</svg>
